<?xml version="1.0" encoding="UTF-8" standalone="no"?>
<!DOCTYPE svg PUBLIC "-//W3C//DTD SVG 1.1//EN"
 "http://www.w3.org/Graphics/SVG/1.1/DTD/svg11.dtd">
<!-- Generated by graphviz version 5.0.0 (20220707.1540)
 -->
<!-- Title: dependencies Pages: 1 -->
<svg width="1793pt" height="247pt"
 viewBox="0.00 0.00 1793.00 246.80" xmlns="http://www.w3.org/2000/svg" xmlns:xlink="http://www.w3.org/1999/xlink">
<g id="graph0" class="graph" transform="scale(1 1) rotate(0) translate(4 242.8)">
<title>dependencies</title>
<polygon fill="white" stroke="transparent" points="-4,4 -4,-242.8 1789,-242.8 1789,4 -4,4"/>
<text text-anchor="middle" x="892.5" y="-8.2" font-family="sans-serif" font-size="14.00">dependencies</text>
<g id="clust1" class="cluster">
<title>cluster_AppModule</title>
<polygon fill="none" stroke="black" stroke-dasharray="1,5" points="8,-32.8 8,-230.8 1777,-230.8 1777,-32.8 8,-32.8"/>
</g>
<g id="clust13" class="cluster">
<title>cluster_AppModule_imports</title>
<polygon fill="none" stroke="black" points="1625,-40.8 1625,-92.8 1769,-92.8 1769,-40.8 1625,-40.8"/>
</g>
<g id="clust15" class="cluster">
<title>cluster_AppModule_bootstrap</title>
<polygon fill="none" stroke="black" points="762,-170.8 762,-222.8 886,-222.8 886,-170.8 762,-170.8"/>
</g>
<g id="clust2" class="cluster">
<title>cluster_AppModule_declarations</title>
<polygon fill="none" stroke="black" points="16,-40.8 16,-92.8 1617,-92.8 1617,-40.8 16,-40.8"/>
</g>
<!-- AddOfferFormComponent -->
<g id="node1" class="node">
<title>AddOfferFormComponent</title>
<polygon fill="#ffffb3" stroke="black" points="1609.09,-84.8 1442.91,-84.8 1442.91,-48.8 1609.09,-48.8 1609.09,-84.8"/>
<text text-anchor="middle" x="1526" y="-62.6" font-family="Times,serif" font-size="14.00">AddOfferFormComponent</text>
</g>
<!-- AppModule -->
<g id="node11" class="node">
<title>AppModule</title>
<polygon fill="#8dd3c7" stroke="black" points="865.66,-149.8 862.66,-153.8 841.66,-153.8 838.66,-149.8 782.34,-149.8 782.34,-113.8 865.66,-113.8 865.66,-149.8"/>
<text text-anchor="middle" x="824" y="-127.6" font-family="Times,serif" font-size="14.00">AppModule</text>
</g>
<!-- AddOfferFormComponent&#45;&gt;AppModule -->
<g id="edge1" class="edge">
<title>AddOfferFormComponent&#45;&gt;AppModule</title>
<path fill="none" stroke="black" d="M1526,-85.08C1526,-106.12 1526,-137.8 1526,-137.8 1526,-137.8 875.81,-137.8 875.81,-137.8"/>
<polygon fill="black" stroke="black" points="875.81,-134.3 865.81,-137.8 875.81,-141.3 875.81,-134.3"/>
</g>
<!-- AgentDashboardComponent -->
<g id="node2" class="node">
<title>AgentDashboardComponent</title>
<polygon fill="#ffffb3" stroke="black" points="1425.19,-84.8 1248.81,-84.8 1248.81,-48.8 1425.19,-48.8 1425.19,-84.8"/>
<text text-anchor="middle" x="1337" y="-62.6" font-family="Times,serif" font-size="14.00">AgentDashboardComponent</text>
</g>
<!-- AgentDashboardComponent&#45;&gt;AppModule -->
<g id="edge2" class="edge">
<title>AgentDashboardComponent&#45;&gt;AppModule</title>
<path fill="none" stroke="black" d="M1337,-84.91C1337,-104.14 1337,-131.8 1337,-131.8 1337,-131.8 875.98,-131.8 875.98,-131.8"/>
<polygon fill="black" stroke="black" points="875.98,-128.3 865.98,-131.8 875.98,-135.3 875.98,-128.3"/>
</g>
<!-- AppComponent -->
<g id="node3" class="node">
<title>AppComponent</title>
<polygon fill="#ffffb3" stroke="black" points="1230.94,-84.8 1125.06,-84.8 1125.06,-48.8 1230.94,-48.8 1230.94,-84.8"/>
<text text-anchor="middle" x="1178" y="-62.6" font-family="Times,serif" font-size="14.00">AppComponent</text>
</g>
<!-- AppComponent&#45;&gt;AppModule -->
<g id="edge3" class="edge">
<title>AppComponent&#45;&gt;AppModule</title>
<path fill="none" stroke="black" d="M1178,-84.82C1178,-102.17 1178,-125.8 1178,-125.8 1178,-125.8 876,-125.8 876,-125.8"/>
<polygon fill="black" stroke="black" points="876,-122.3 866,-125.8 876,-129.3 876,-122.3"/>
</g>
<!-- CompanyProfileComponent -->
<g id="node4" class="node">
<title>CompanyProfileComponent</title>
<polygon fill="#ffffb3" stroke="black" points="1106.88,-84.8 933.12,-84.8 933.12,-48.8 1106.88,-48.8 1106.88,-84.8"/>
<text text-anchor="middle" x="1020" y="-62.6" font-family="Times,serif" font-size="14.00">CompanyProfileComponent</text>
</g>
<!-- CompanyProfileComponent&#45;&gt;AppModule -->
<g id="edge4" class="edge">
<title>CompanyProfileComponent&#45;&gt;AppModule</title>
<path fill="none" stroke="black" d="M1020,-85.04C1020,-100.37 1020,-119.8 1020,-119.8 1020,-119.8 876.05,-119.8 876.05,-119.8"/>
<polygon fill="black" stroke="black" points="876.05,-116.3 866.05,-119.8 876.05,-123.3 876.05,-116.3"/>
</g>
<!-- CompanyRegisterComponent -->
<g id="node5" class="node">
<title>CompanyRegisterComponent</title>
<polygon fill="#ffffb3" stroke="black" points="915.43,-84.8 732.57,-84.8 732.57,-48.8 915.43,-48.8 915.43,-84.8"/>
<text text-anchor="middle" x="824" y="-62.6" font-family="Times,serif" font-size="14.00">CompanyRegisterComponent</text>
</g>
<!-- CompanyRegisterComponent&#45;&gt;AppModule -->
<g id="edge5" class="edge">
<title>CompanyRegisterComponent&#45;&gt;AppModule</title>
<path fill="none" stroke="black" d="M824,-84.91C824,-84.91 824,-103.79 824,-103.79"/>
<polygon fill="black" stroke="black" points="820.5,-103.79 824,-113.79 827.5,-103.79 820.5,-103.79"/>
</g>
<!-- FooterComponent -->
<g id="node6" class="node">
<title>FooterComponent</title>
<polygon fill="#ffffb3" stroke="black" points="714.88,-84.8 597.12,-84.8 597.12,-48.8 714.88,-48.8 714.88,-84.8"/>
<text text-anchor="middle" x="656" y="-62.6" font-family="Times,serif" font-size="14.00">FooterComponent</text>
</g>
<!-- FooterComponent&#45;&gt;AppModule -->
<g id="edge6" class="edge">
<title>FooterComponent&#45;&gt;AppModule</title>
<path fill="none" stroke="black" d="M656,-85.04C656,-100.37 656,-119.8 656,-119.8 656,-119.8 772.04,-119.8 772.04,-119.8"/>
<polygon fill="black" stroke="black" points="772.04,-123.3 782.04,-119.8 772.04,-116.3 772.04,-123.3"/>
</g>
<!-- LoginComponent -->
<g id="node7" class="node">
<title>LoginComponent</title>
<polygon fill="#ffffb3" stroke="black" points="579.27,-84.8 464.73,-84.8 464.73,-48.8 579.27,-48.8 579.27,-84.8"/>
<text text-anchor="middle" x="522" y="-62.6" font-family="Times,serif" font-size="14.00">LoginComponent</text>
</g>
<!-- LoginComponent&#45;&gt;AppModule -->
<g id="edge7" class="edge">
<title>LoginComponent&#45;&gt;AppModule</title>
<path fill="none" stroke="black" d="M522,-84.82C522,-102.17 522,-125.8 522,-125.8 522,-125.8 772.33,-125.8 772.33,-125.8"/>
<polygon fill="black" stroke="black" points="772.33,-129.3 782.33,-125.8 772.33,-122.3 772.33,-129.3"/>
</g>
<!-- NavBarComponent -->
<g id="node8" class="node">
<title>NavBarComponent</title>
<polygon fill="#ffffb3" stroke="black" points="446.37,-84.8 321.63,-84.8 321.63,-48.8 446.37,-48.8 446.37,-84.8"/>
<text text-anchor="middle" x="384" y="-62.6" font-family="Times,serif" font-size="14.00">NavBarComponent</text>
</g>
<!-- NavBarComponent&#45;&gt;AppModule -->
<g id="edge8" class="edge">
<title>NavBarComponent&#45;&gt;AppModule</title>
<path fill="none" stroke="black" d="M384,-84.91C384,-104.14 384,-131.8 384,-131.8 384,-131.8 772.21,-131.8 772.21,-131.8"/>
<polygon fill="black" stroke="black" points="772.21,-135.3 782.21,-131.8 772.21,-128.3 772.21,-135.3"/>
</g>
<!-- OffersComponent -->
<g id="node9" class="node">
<title>OffersComponent</title>
<polygon fill="#ffffb3" stroke="black" points="303.59,-84.8 186.41,-84.8 186.41,-48.8 303.59,-48.8 303.59,-84.8"/>
<text text-anchor="middle" x="245" y="-62.6" font-family="Times,serif" font-size="14.00">OffersComponent</text>
</g>
<!-- OffersComponent&#45;&gt;AppModule -->
<g id="edge9" class="edge">
<title>OffersComponent&#45;&gt;AppModule</title>
<path fill="none" stroke="black" d="M245,-85.08C245,-106.12 245,-137.8 245,-137.8 245,-137.8 771.89,-137.8 771.89,-137.8"/>
<polygon fill="black" stroke="black" points="771.89,-141.3 781.89,-137.8 771.89,-134.3 771.89,-141.3"/>
</g>
<!-- OwnOffersComponent -->
<g id="node10" class="node">
<title>OwnOffersComponent</title>
<polygon fill="#ffffb3" stroke="black" points="168.31,-84.8 23.69,-84.8 23.69,-48.8 168.31,-48.8 168.31,-84.8"/>
<text text-anchor="middle" x="96" y="-62.6" font-family="Times,serif" font-size="14.00">OwnOffersComponent</text>
</g>
<!-- OwnOffersComponent&#45;&gt;AppModule -->
<g id="edge10" class="edge">
<title>OwnOffersComponent&#45;&gt;AppModule</title>
<path fill="none" stroke="black" d="M96,-85.05C96,-107.82 96,-143.8 96,-143.8 96,-143.8 772.24,-143.8 772.24,-143.8"/>
<polygon fill="black" stroke="black" points="772.24,-147.3 782.24,-143.8 772.24,-140.3 772.24,-147.3"/>
</g>
<!-- AppComponent  -->
<g id="node13" class="node">
<title>AppComponent </title>
<polygon fill="#80b1d3" stroke="black" points="878.44,-214.8 769.56,-214.8 769.56,-178.8 878.44,-178.8 878.44,-214.8"/>
<text text-anchor="middle" x="824" y="-192.6" font-family="Times,serif" font-size="14.00">AppComponent </text>
</g>
<!-- AppModule&#45;&gt;AppComponent  -->
<g id="edge12" class="edge">
<title>AppModule&#45;&gt;AppComponent </title>
<path fill="none" stroke="black" stroke-dasharray="1,5" d="M824,-149.91C824,-149.91 824,-168.79 824,-168.79"/>
<polygon fill="black" stroke="black" points="820.5,-168.79 824,-178.79 827.5,-168.79 820.5,-168.79"/>
</g>
<!-- AppRoutingModule -->
<g id="node12" class="node">
<title>AppRoutingModule</title>
<polygon fill="#8dd3c7" stroke="black" points="1761.28,-84.8 1758.28,-88.8 1737.28,-88.8 1734.28,-84.8 1632.72,-84.8 1632.72,-48.8 1761.28,-48.8 1761.28,-84.8"/>
<text text-anchor="middle" x="1697" y="-62.6" font-family="Times,serif" font-size="14.00">AppRoutingModule</text>
</g>
<!-- AppRoutingModule&#45;&gt;AppModule -->
<g id="edge11" class="edge">
<title>AppRoutingModule&#45;&gt;AppModule</title>
<path fill="none" stroke="black" d="M1697,-85.05C1697,-107.82 1697,-143.8 1697,-143.8 1697,-143.8 875.81,-143.8 875.81,-143.8"/>
<polygon fill="black" stroke="black" points="875.81,-140.3 865.81,-143.8 875.81,-147.3 875.81,-140.3"/>
</g>
</g>
</svg>
