<?xml version="1.0" encoding="UTF-8" standalone="no"?>
<!DOCTYPE svg PUBLIC "-//W3C//DTD SVG 1.1//EN"
 "http://www.w3.org/Graphics/SVG/1.1/DTD/svg11.dtd">
<!-- Generated by graphviz version 5.0.0 (20220707.1540)
 -->
<!-- Title: dependencies Pages: 1 -->
<svg width="1793pt" height="247pt"
 viewBox="0.00 0.00 1793.00 246.80" xmlns="http://www.w3.org/2000/svg" xmlns:xlink="http://www.w3.org/1999/xlink">
<g id="graph0" class="graph" transform="scale(1 1) rotate(0) translate(4 242.8)">
<title>dependencies</title>
<polygon fill="white" stroke="transparent" points="-4,4 -4,-242.8 1789,-242.8 1789,4 -4,4"/>
<text text-anchor="middle" x="892.5" y="-8.2" font-family="sans-serif" font-size="14.00">dependencies</text>
<g id="clust1" class="cluster">
<title>cluster_AppModule</title>
<polygon fill="none" stroke="black" stroke-dasharray="1,5" points="8,-32.8 8,-230.8 1777,-230.8 1777,-32.8 8,-32.8"/>
</g>
<g id="clust2" class="cluster">
<title>cluster_AppModule_declarations</title>
<polygon fill="none" stroke="black" points="168,-40.8 168,-92.8 1769,-92.8 1769,-40.8 168,-40.8"/>
</g>
<g id="clust13" class="cluster">
<title>cluster_AppModule_imports</title>
<polygon fill="none" stroke="black" points="16,-40.8 16,-92.8 160,-92.8 160,-40.8 16,-40.8"/>
</g>
<g id="clust15" class="cluster">
<title>cluster_AppModule_bootstrap</title>
<polygon fill="none" stroke="black" points="746,-170.8 746,-222.8 870,-222.8 870,-170.8 746,-170.8"/>
</g>
<!-- AddOfferFormComponent -->
<g id="node1" class="node">
<title>AddOfferFormComponent</title>
<polygon fill="#ffffb3" stroke="black" points="1761.09,-84.8 1594.91,-84.8 1594.91,-48.8 1761.09,-48.8 1761.09,-84.8"/>
<text text-anchor="middle" x="1678" y="-62.6" font-family="Times,serif" font-size="14.00">AddOfferFormComponent</text>
</g>
<!-- AppModule -->
<g id="node11" class="node">
<title>AppModule</title>
<polygon fill="#8dd3c7" stroke="black" points="849.66,-149.8 846.66,-153.8 825.66,-153.8 822.66,-149.8 766.34,-149.8 766.34,-113.8 849.66,-113.8 849.66,-149.8"/>
<text text-anchor="middle" x="808" y="-127.6" font-family="Times,serif" font-size="14.00">AppModule</text>
</g>
<!-- AddOfferFormComponent&#45;&gt;AppModule -->
<g id="edge1" class="edge">
<title>AddOfferFormComponent&#45;&gt;AppModule</title>
<path fill="none" stroke="black" d="M1678,-85.05C1678,-107.82 1678,-143.8 1678,-143.8 1678,-143.8 859.67,-143.8 859.67,-143.8"/>
<polygon fill="black" stroke="black" points="859.67,-140.3 849.67,-143.8 859.67,-147.3 859.67,-140.3"/>
</g>
<!-- AgentDashboardComponent -->
<g id="node2" class="node">
<title>AgentDashboardComponent</title>
<polygon fill="#ffffb3" stroke="black" points="1577.19,-84.8 1400.81,-84.8 1400.81,-48.8 1577.19,-48.8 1577.19,-84.8"/>
<text text-anchor="middle" x="1489" y="-62.6" font-family="Times,serif" font-size="14.00">AgentDashboardComponent</text>
</g>
<!-- AgentDashboardComponent&#45;&gt;AppModule -->
<g id="edge2" class="edge">
<title>AgentDashboardComponent&#45;&gt;AppModule</title>
<path fill="none" stroke="black" d="M1489,-85.08C1489,-106.12 1489,-137.8 1489,-137.8 1489,-137.8 859.83,-137.8 859.83,-137.8"/>
<polygon fill="black" stroke="black" points="859.83,-134.3 849.83,-137.8 859.83,-141.3 859.83,-134.3"/>
</g>
<!-- AppComponent -->
<g id="node3" class="node">
<title>AppComponent</title>
<polygon fill="#ffffb3" stroke="black" points="1382.94,-84.8 1277.06,-84.8 1277.06,-48.8 1382.94,-48.8 1382.94,-84.8"/>
<text text-anchor="middle" x="1330" y="-62.6" font-family="Times,serif" font-size="14.00">AppComponent</text>
</g>
<!-- AppComponent&#45;&gt;AppModule -->
<g id="edge3" class="edge">
<title>AppComponent&#45;&gt;AppModule</title>
<path fill="none" stroke="black" d="M1330,-84.91C1330,-104.14 1330,-131.8 1330,-131.8 1330,-131.8 859.84,-131.8 859.84,-131.8"/>
<polygon fill="black" stroke="black" points="859.84,-128.3 849.84,-131.8 859.84,-135.3 859.84,-128.3"/>
</g>
<!-- CompanyProfileComponent -->
<g id="node4" class="node">
<title>CompanyProfileComponent</title>
<polygon fill="#ffffb3" stroke="black" points="1258.88,-84.8 1085.12,-84.8 1085.12,-48.8 1258.88,-48.8 1258.88,-84.8"/>
<text text-anchor="middle" x="1172" y="-62.6" font-family="Times,serif" font-size="14.00">CompanyProfileComponent</text>
</g>
<!-- CompanyProfileComponent&#45;&gt;AppModule -->
<g id="edge4" class="edge">
<title>CompanyProfileComponent&#45;&gt;AppModule</title>
<path fill="none" stroke="black" d="M1172,-84.82C1172,-102.17 1172,-125.8 1172,-125.8 1172,-125.8 859.76,-125.8 859.76,-125.8"/>
<polygon fill="black" stroke="black" points="859.76,-122.3 849.76,-125.8 859.76,-129.3 859.76,-122.3"/>
</g>
<!-- CompanyRegisterComponent -->
<g id="node5" class="node">
<title>CompanyRegisterComponent</title>
<polygon fill="#ffffb3" stroke="black" points="1067.43,-84.8 884.57,-84.8 884.57,-48.8 1067.43,-48.8 1067.43,-84.8"/>
<text text-anchor="middle" x="976" y="-62.6" font-family="Times,serif" font-size="14.00">CompanyRegisterComponent</text>
</g>
<!-- CompanyRegisterComponent&#45;&gt;AppModule -->
<g id="edge5" class="edge">
<title>CompanyRegisterComponent&#45;&gt;AppModule</title>
<path fill="none" stroke="black" d="M976,-85.04C976,-100.37 976,-119.8 976,-119.8 976,-119.8 859.96,-119.8 859.96,-119.8"/>
<polygon fill="black" stroke="black" points="859.96,-116.3 849.96,-119.8 859.96,-123.3 859.96,-116.3"/>
</g>
<!-- FooterComponent -->
<g id="node6" class="node">
<title>FooterComponent</title>
<polygon fill="#ffffb3" stroke="black" points="866.88,-84.8 749.12,-84.8 749.12,-48.8 866.88,-48.8 866.88,-84.8"/>
<text text-anchor="middle" x="808" y="-62.6" font-family="Times,serif" font-size="14.00">FooterComponent</text>
</g>
<!-- FooterComponent&#45;&gt;AppModule -->
<g id="edge6" class="edge">
<title>FooterComponent&#45;&gt;AppModule</title>
<path fill="none" stroke="black" d="M808,-84.91C808,-84.91 808,-103.79 808,-103.79"/>
<polygon fill="black" stroke="black" points="804.5,-103.79 808,-113.79 811.5,-103.79 804.5,-103.79"/>
</g>
<!-- LoginComponent -->
<g id="node7" class="node">
<title>LoginComponent</title>
<polygon fill="#ffffb3" stroke="black" points="731.27,-84.8 616.73,-84.8 616.73,-48.8 731.27,-48.8 731.27,-84.8"/>
<text text-anchor="middle" x="674" y="-62.6" font-family="Times,serif" font-size="14.00">LoginComponent</text>
</g>
<!-- LoginComponent&#45;&gt;AppModule -->
<g id="edge7" class="edge">
<title>LoginComponent&#45;&gt;AppModule</title>
<path fill="none" stroke="black" d="M674,-85.04C674,-100.37 674,-119.8 674,-119.8 674,-119.8 756.34,-119.8 756.34,-119.8"/>
<polygon fill="black" stroke="black" points="756.34,-123.3 766.34,-119.8 756.34,-116.3 756.34,-123.3"/>
</g>
<!-- NavBarComponent -->
<g id="node8" class="node">
<title>NavBarComponent</title>
<polygon fill="#ffffb3" stroke="black" points="598.37,-84.8 473.63,-84.8 473.63,-48.8 598.37,-48.8 598.37,-84.8"/>
<text text-anchor="middle" x="536" y="-62.6" font-family="Times,serif" font-size="14.00">NavBarComponent</text>
</g>
<!-- NavBarComponent&#45;&gt;AppModule -->
<g id="edge8" class="edge">
<title>NavBarComponent&#45;&gt;AppModule</title>
<path fill="none" stroke="black" d="M536,-84.82C536,-102.17 536,-125.8 536,-125.8 536,-125.8 756.1,-125.8 756.1,-125.8"/>
<polygon fill="black" stroke="black" points="756.1,-129.3 766.1,-125.8 756.1,-122.3 756.1,-129.3"/>
</g>
<!-- OffersComponent -->
<g id="node9" class="node">
<title>OffersComponent</title>
<polygon fill="#ffffb3" stroke="black" points="455.59,-84.8 338.41,-84.8 338.41,-48.8 455.59,-48.8 455.59,-84.8"/>
<text text-anchor="middle" x="397" y="-62.6" font-family="Times,serif" font-size="14.00">OffersComponent</text>
</g>
<!-- OffersComponent&#45;&gt;AppModule -->
<g id="edge9" class="edge">
<title>OffersComponent&#45;&gt;AppModule</title>
<path fill="none" stroke="black" d="M397,-84.91C397,-104.14 397,-131.8 397,-131.8 397,-131.8 756.33,-131.8 756.33,-131.8"/>
<polygon fill="black" stroke="black" points="756.33,-135.3 766.33,-131.8 756.33,-128.3 756.33,-135.3"/>
</g>
<!-- OwnOffersComponent -->
<g id="node10" class="node">
<title>OwnOffersComponent</title>
<polygon fill="#ffffb3" stroke="black" points="320.31,-84.8 175.69,-84.8 175.69,-48.8 320.31,-48.8 320.31,-84.8"/>
<text text-anchor="middle" x="248" y="-62.6" font-family="Times,serif" font-size="14.00">OwnOffersComponent</text>
</g>
<!-- OwnOffersComponent&#45;&gt;AppModule -->
<g id="edge10" class="edge">
<title>OwnOffersComponent&#45;&gt;AppModule</title>
<path fill="none" stroke="black" d="M248,-85.08C248,-106.12 248,-137.8 248,-137.8 248,-137.8 755.91,-137.8 755.91,-137.8"/>
<polygon fill="black" stroke="black" points="755.91,-141.3 765.91,-137.8 755.91,-134.3 755.91,-141.3"/>
</g>
<!-- AppComponent  -->
<g id="node13" class="node">
<title>AppComponent </title>
<polygon fill="#80b1d3" stroke="black" points="862.44,-214.8 753.56,-214.8 753.56,-178.8 862.44,-178.8 862.44,-214.8"/>
<text text-anchor="middle" x="808" y="-192.6" font-family="Times,serif" font-size="14.00">AppComponent </text>
</g>
<!-- AppModule&#45;&gt;AppComponent  -->
<g id="edge12" class="edge">
<title>AppModule&#45;&gt;AppComponent </title>
<path fill="none" stroke="black" stroke-dasharray="1,5" d="M808,-149.91C808,-149.91 808,-168.79 808,-168.79"/>
<polygon fill="black" stroke="black" points="804.5,-168.79 808,-178.79 811.5,-168.79 804.5,-168.79"/>
</g>
<!-- AppRoutingModule -->
<g id="node12" class="node">
<title>AppRoutingModule</title>
<polygon fill="#8dd3c7" stroke="black" points="152.28,-84.8 149.28,-88.8 128.28,-88.8 125.28,-84.8 23.72,-84.8 23.72,-48.8 152.28,-48.8 152.28,-84.8"/>
<text text-anchor="middle" x="88" y="-62.6" font-family="Times,serif" font-size="14.00">AppRoutingModule</text>
</g>
<!-- AppRoutingModule&#45;&gt;AppModule -->
<g id="edge11" class="edge">
<title>AppRoutingModule&#45;&gt;AppModule</title>
<path fill="none" stroke="black" d="M88,-85.05C88,-107.82 88,-143.8 88,-143.8 88,-143.8 756.18,-143.8 756.18,-143.8"/>
<polygon fill="black" stroke="black" points="756.18,-147.3 766.18,-143.8 756.18,-140.3 756.18,-147.3"/>
</g>
</g>
</svg>
